<svg width="40" height="40" viewBox="0 0 40 40" fill="none" xmlns="http://www.w3.org/2000/svg">
<path fill-rule="evenodd" clip-rule="evenodd" d="M28.3333 11.6667C28.3333 8.90527 26.0948 6.66669 23.3333 6.66669H16.6667C13.9052 6.66669 11.6667 8.90527 11.6667 11.6667H10C7.23858 11.6667 5 13.9053 5 16.6667V30C5 32.7615 7.23858 35 10 35H30C32.7615 35 35 32.7615 35 30V16.6667C35 13.9053 32.7615 11.6667 30 11.6667H28.3333ZM23.3333 10H16.6667C15.7462 10 15 10.7462 15 11.6667H25C25 10.7462 24.2538 10 23.3333 10ZM10 15H30C30.9205 15 31.6667 15.7462 31.6667 16.6667V30C31.6667 30.9205 30.9205 31.6667 30 31.6667H10C9.07953 31.6667 8.33333 30.9205 8.33333 30V16.6667C8.33333 15.7462 9.07953 15 10 15Z" fill="black"/>
</svg>
