<svg width="40" height="40" viewBox="0 0 40 40" fill="none" xmlns="http://www.w3.org/2000/svg">
<path d="M20 3.33331C24.5284 3.33331 25.0934 3.34998 26.87 3.43331C28.645 3.51665 29.8534 3.79498 30.9167 4.20831C32.0167 4.63165 32.9434 5.20498 33.87 6.12998C34.7175 6.96314 35.3733 7.97096 35.7917 9.08331C36.2034 10.145 36.4834 11.355 36.5667 13.13C36.645 14.9066 36.6667 15.4716 36.6667 20C36.6667 24.5283 36.65 25.0933 36.5667 26.87C36.4834 28.645 36.2034 29.8533 35.7917 30.9166C35.3745 32.0296 34.7186 33.0377 33.87 33.87C33.0366 34.7172 32.0289 35.3729 30.9167 35.7916C29.855 36.2033 28.645 36.4833 26.87 36.5666C25.0934 36.645 24.5284 36.6666 20 36.6666C15.4717 36.6666 14.9067 36.65 13.13 36.5666C11.355 36.4833 10.1467 36.2033 9.08337 35.7916C7.97058 35.3741 6.96259 34.7182 6.13004 33.87C5.28238 33.037 4.62659 32.0291 4.20837 30.9166C3.79504 29.855 3.51671 28.645 3.43337 26.87C3.35504 25.0933 3.33337 24.5283 3.33337 20C3.33337 15.4716 3.35004 14.9066 3.43337 13.13C3.51671 11.3533 3.79504 10.1466 4.20837 9.08331C4.62543 7.97028 5.28138 6.96218 6.13004 6.12998C6.96283 5.28203 7.97075 4.6262 9.08337 4.20831C10.1467 3.79498 11.3534 3.51665 13.13 3.43331C14.9067 3.35498 15.4717 3.33331 20 3.33331ZM20 11.6666C17.7899 11.6666 15.6703 12.5446 14.1075 14.1074C12.5447 15.6702 11.6667 17.7898 11.6667 20C11.6667 22.2101 12.5447 24.3297 14.1075 25.8925C15.6703 27.4553 17.7899 28.3333 20 28.3333C22.2102 28.3333 24.3298 27.4553 25.8926 25.8925C27.4554 24.3297 28.3334 22.2101 28.3334 20C28.3334 17.7898 27.4554 15.6702 25.8926 14.1074C24.3298 12.5446 22.2102 11.6666 20 11.6666V11.6666ZM30.8334 11.25C30.8334 10.6974 30.6139 10.1675 30.2232 9.77684C29.8325 9.38614 29.3026 9.16665 28.75 9.16665C28.1975 9.16665 27.6676 9.38614 27.2769 9.77684C26.8862 10.1675 26.6667 10.6974 26.6667 11.25C26.6667 11.8025 26.8862 12.3324 27.2769 12.7231C27.6676 13.1138 28.1975 13.3333 28.75 13.3333C29.3026 13.3333 29.8325 13.1138 30.2232 12.7231C30.6139 12.3324 30.8334 11.8025 30.8334 11.25ZM20 15C21.3261 15 22.5979 15.5268 23.5356 16.4644C24.4733 17.4021 25 18.6739 25 20C25 21.3261 24.4733 22.5978 23.5356 23.5355C22.5979 24.4732 21.3261 25 20 25C18.674 25 17.4022 24.4732 16.4645 23.5355C15.5268 22.5978 15 21.3261 15 20C15 18.6739 15.5268 17.4021 16.4645 16.4644C17.4022 15.5268 18.674 15 20 15V15Z" fill="black"/>
</svg>
