<svg width="40" height="40" viewBox="0 0 40 40" fill="none" xmlns="http://www.w3.org/2000/svg">
<path d="M8.30499 11.995C10.319 11.995 11.9517 10.3623 11.9517 8.34833C11.9517 6.33433 10.319 4.70166 8.30499 4.70166C6.29099 4.70166 4.65833 6.33433 4.65833 8.34833C4.65833 10.3623 6.29099 11.995 8.30499 11.995Z" fill="black"/>
<path d="M15.395 14.7584V34.99H21.6767V24.985C21.6767 22.345 22.1733 19.7884 25.4467 19.7884C28.675 19.7884 28.715 22.8067 28.715 25.1517V34.9917H35V23.8967C35 18.4467 33.8267 14.2584 27.4567 14.2584C24.3983 14.2584 22.3483 15.9367 21.51 17.525H21.425V14.7584H15.395V14.7584ZM5.15833 14.7584H11.45V34.99H5.15833V14.7584Z" fill="black"/>
</svg>
