<svg width="40" height="40" viewBox="0 0 40 40" fill="none" xmlns="http://www.w3.org/2000/svg">
<path d="M19.9999 6.66665C27.3516 6.66665 33.3333 12.6483 33.3333 20C33.3333 27.3516 27.3516 33.3333 19.9999 33.3333C12.6483 33.3333 6.66659 27.3516 6.66659 20C6.66659 12.6483 12.6483 6.66665 19.9999 6.66665ZM19.9999 3.33331C10.7949 3.33331 3.33325 10.795 3.33325 20C3.33325 29.205 10.7949 36.6666 19.9999 36.6666C29.2049 36.6666 36.6666 29.205 36.6666 20C36.6666 10.795 29.2049 3.33331 19.9999 3.33331ZM21.6666 25H18.3333V28.3333H21.6666V25ZM18.3333 21.6666H21.6666L22.4999 11.6666H17.4999L18.3333 21.6666Z" fill="black"/>
</svg>
