<svg width="57" height="57" viewBox="0 0 57 57" fill="none" xmlns="http://www.w3.org/2000/svg">
<path d="M42.0541 29.1959C41.8338 28.9751 41.572 28.8 41.2839 28.6805C40.9958 28.561 40.6869 28.4995 40.375 28.4995C40.0631 28.4995 39.7542 28.561 39.4661 28.6805C39.178 28.8 38.9162 28.9751 38.6959 29.1959L34.9101 32.9816C33.155 32.4591 29.8799 31.2716 27.8041 29.1959C25.7284 27.1201 24.5409 23.845 24.0184 22.0899L27.8041 18.3041C28.0249 18.0837 28.2 17.822 28.3195 17.5339C28.439 17.2458 28.5005 16.9369 28.5005 16.625C28.5005 16.3131 28.439 16.0042 28.3195 15.7161C28.2 15.428 28.0249 15.1662 27.8041 14.9459L18.3041 5.44586C18.0838 5.22512 17.822 5.04999 17.5339 4.9305C17.2458 4.81101 16.9369 4.74951 16.625 4.74951C16.3131 4.74951 16.0042 4.81101 15.7161 4.9305C15.428 5.04999 15.1662 5.22512 14.9459 5.44586L8.50488 11.8869C7.60238 12.7894 7.09413 14.0291 7.11313 15.295C7.16775 18.677 8.06313 30.4237 17.3209 39.6815C26.5786 48.9392 38.3254 49.8322 41.7098 49.8892H41.7763C43.0303 49.8892 44.2154 49.3952 45.1131 48.4975L51.5541 42.0565C51.7749 41.8361 51.95 41.5744 52.0695 41.2863C52.189 40.9981 52.2505 40.6893 52.2505 40.3774C52.2505 40.0654 52.189 39.7566 52.0695 39.4685C51.95 39.1803 51.7749 38.9186 51.5541 38.6982L42.0541 29.1959ZM41.7525 45.1369C38.7885 45.087 28.6472 44.2914 20.6791 36.3209C12.6849 28.3266 11.9106 18.1497 11.8631 15.2451L16.625 10.4832L22.7668 16.625L19.6959 19.6959C19.4167 19.9748 19.2115 20.3189 19.0987 20.6971C18.9859 21.0753 18.9691 21.4756 19.0499 21.8619C19.1069 22.135 20.501 28.6116 24.4435 32.5541C28.386 36.4966 34.8626 37.8907 35.1357 37.9477C35.5218 38.0308 35.9225 38.0153 36.301 37.9029C36.6796 37.7904 37.0237 37.5845 37.3018 37.3041L40.375 34.2332L46.5168 40.375L41.7525 45.1369V45.1369Z" fill="black"/>
</svg>
