<svg width="40" height="40" viewBox="0 0 40 40" fill="none" xmlns="http://www.w3.org/2000/svg">
<path d="M36.6667 2.5H3.33333C1.49306 2.5 0 4.17969 0 6.25V33.75C0 35.8203 1.49306 37.5 3.33333 37.5H36.6667C38.5069 37.5 40 35.8203 40 33.75V6.25C40 4.17969 38.5069 2.5 36.6667 2.5ZM36.6667 33.75H3.33333V6.25H36.6667V33.75ZM14.4444 20C16.8958 20 18.8889 17.7578 18.8889 15C18.8889 12.2422 16.8958 10 14.4444 10C11.9931 10 10 12.2422 10 15C10 17.7578 11.9931 20 14.4444 20ZM8.22222 30H20.6667C21.5278 30 22.2222 29.3281 22.2222 28.5V27C22.2222 24.5156 20.1319 22.5 17.5556 22.5C16.8056 22.5 16.2569 23.125 14.4444 23.125C12.5764 23.125 12.125 22.5 11.3333 22.5C8.75694 22.5 6.66667 24.5156 6.66667 27V28.5C6.66667 29.3281 7.36111 30 8.22222 30V30ZM25 25H32.7778C33.0833 25 33.3333 24.7188 33.3333 24.375V23.125C33.3333 22.7812 33.0833 22.5 32.7778 22.5H25C24.6944 22.5 24.4444 22.7812 24.4444 23.125V24.375C24.4444 24.7188 24.6944 25 25 25ZM25 20H32.7778C33.0833 20 33.3333 19.7188 33.3333 19.375V18.125C33.3333 17.7812 33.0833 17.5 32.7778 17.5H25C24.6944 17.5 24.4444 17.7812 24.4444 18.125V19.375C24.4444 19.7188 24.6944 20 25 20ZM25 15H32.7778C33.0833 15 33.3333 14.7188 33.3333 14.375V13.125C33.3333 12.7812 33.0833 12.5 32.7778 12.5H25C24.6944 12.5 24.4444 12.7812 24.4444 13.125V14.375C24.4444 14.7188 24.6944 15 25 15Z" fill="black"/>
</svg>
