<svg width="40" height="40" viewBox="0 0 40 40" fill="none" xmlns="http://www.w3.org/2000/svg">
<g clip-path="url(#clip0_3_16)">
<path d="M39.6025 12C39.6025 12 39.2125 9.24249 38.01 8.03249C36.4875 6.43999 34.7825 6.42999 34.0025 6.33749C28.41 5.92999 20.01 5.92999 20.01 5.92999H19.995C19.995 5.92999 11.5975 5.92999 6.00245 6.33749C5.21995 6.43249 3.51745 6.43999 1.99495 8.03249C0.792451 9.24249 0.409951 12 0.409951 12C0.409951 12 0.0124512 15.235 0.0124512 18.4775V21.51C0.0124512 24.745 0.409951 27.9875 0.409951 27.9875C0.409951 27.9875 0.799951 30.745 1.99495 31.9575C3.51745 33.55 5.51745 33.4975 6.40995 33.6675C9.61245 33.9725 20.0125 34.065 20.0125 34.065C20.0125 34.065 28.42 34.05 34.0125 33.65C34.795 33.5575 36.4975 33.5475 38.02 31.955C39.2225 30.745 39.6125 27.985 39.6125 27.985C39.6125 27.985 40.01 24.75 40.01 21.5075V18.475C40.0025 15.24 39.605 11.9975 39.605 11.9975L39.6025 12ZM15.8675 25.1875V13.945L26.6725 19.585L15.8675 25.1875Z" fill="black"/>
</g>
<defs>
<clipPath id="clip0_3_16">
<rect width="40" height="40" fill="white"/>
</clipPath>
</defs>
</svg>
